<svg width="1200" height="320" viewBox="0 0 1200 320" fill="none" xmlns="http://www.w3.org/2000/svg" role="img" aria-labelledby="title desc">
  <title id="title">Yingche Wee — EE / CS</title>
  <desc id="desc">Minimal engineering profile banner for Yingche Wee.</desc>

  <rect width="1200" height="320" fill="#0D1117"/>
  <rect x="0.5" y="0.5" width="1199" height="319" stroke="#30363D"/>

  <g stroke="#21262D" stroke-width="1">
    <path d="M0 64H1200"/>
    <path d="M0 256H1200"/>
    <path d="M742 0V320"/>
    <path d="M1080 0V320"/>
  </g>

  <g fill="#484F58">
    <rect x="36" y="31" width="22" height="1"/>
    <rect x="36" y="287" width="22" height="1"/>
    <rect x="1142" y="31" width="22" height="1"/>
    <rect x="1142" y="287" width="22" height="1"/>
  </g>

  <g font-family="ui-monospace, SFMono-Regular, Menlo, Consolas, monospace">
    <text x="36" y="42" font-size="11" fill="#8B949E" letter-spacing="1.6">PROFILE / 001</text>
    <text x="1164" y="42" text-anchor="end" font-size="11" fill="#8B949E" letter-spacing="1.2">github.com/dude297</text>

    <text x="52" y="133" font-family="Arial, Helvetica, sans-serif" font-size="64" font-weight="700" fill="#F0F3F6" letter-spacing="-2.5">YINGCHE WEE</text>
    <text x="55" y="176" font-size="15" fill="#8B949E" letter-spacing="1.5">EE / CS  ·  SOFTWARE ↔ SYSTEMS ↔ HARDWARE</text>

    <rect x="54" y="206" width="72" height="2" fill="#58A6FF"/>
    <text x="54" y="238" font-size="13" fill="#C9D1D9">Building reliable systems under real constraints.</text>

    <text x="774" y="94" font-size="10" fill="#6E7681" letter-spacing="1.4">CURRENT FOCUS</text>
    <text x="774" y="124" font-size="14" fill="#F0F3F6">01  AI agent reliability</text>
    <text x="774" y="154" font-size="14" fill="#F0F3F6">02  local-first infrastructure</text>
    <text x="774" y="184" font-size="14" fill="#F0F3F6">03  embedded systems / FPGA</text>
    <text x="774" y="214" font-size="14" fill="#F0F3F6">04  VLA safety research</text>

    <text x="1114" y="94" font-size="10" fill="#6E7681" letter-spacing="1.4">METHOD</text>
    <text x="1114" y="124" font-size="12" fill="#8B949E">MODEL</text>
    <text x="1114" y="151" font-size="12" fill="#8B949E">BUILD</text>
    <text x="1114" y="178" font-size="12" fill="#8B949E">BREAK</text>
    <text x="1114" y="205" font-size="12" fill="#8B949E">SHIP</text>

    <text x="36" y="291" font-size="10" fill="#6E7681" letter-spacing="1.1">dude297 / engineering portfolio</text>
    <text x="1164" y="291" text-anchor="end" font-size="10" fill="#58A6FF" letter-spacing="1.1">BUILD THE REAL PATH.</text>
  </g>
</svg>